<svg width="163" height="47" viewBox="0 0 163 47" fill="none" xmlns="http://www.w3.org/2000/svg">
    <path d="M2.83297 33.907C1.92013 33.907 1.21188 33.6589 0.708243 33.1628C0.236082 32.6667 0 31.9535 0 31.0233V3.34884C0 2.3876 0.236082 1.65892 0.708243 1.16279C1.21188 0.635659 1.85717 0.372092 2.64411 0.372092C3.36809 0.372092 3.9032 0.511626 4.24945 0.790696C4.62718 1.03876 5.06786 1.47287 5.5715 2.09302L23.6553 25.2093H22.4277V3.2093C22.4277 2.31008 22.6637 1.6124 23.1359 1.11628C23.6395 0.620154 24.3478 0.372092 25.2606 0.372092C26.1735 0.372092 26.866 0.620154 27.3381 1.11628C27.8103 1.6124 28.0464 2.31008 28.0464 3.2093V31.1163C28.0464 31.9845 27.826 32.6667 27.3854 33.1628C26.9447 33.6589 26.3466 33.907 25.5911 33.907C24.8672 33.907 24.2848 33.7674 23.8441 33.4884C23.4349 33.2093 22.9785 32.7597 22.4749 32.1395L4.43832 9.02326H5.61872V31.0233C5.61872 31.9535 5.38264 32.6667 4.91048 33.1628C4.43832 33.6589 3.74582 33.907 2.83297 33.907Z" fill="#44BBA4"/>
    <path d="M43.1105 34C41.1904 34 39.6008 33.6589 38.3417 32.9767C37.0826 32.2636 36.1383 31.2093 35.5087 29.814C34.9107 28.4186 34.6116 26.6822 34.6116 24.6047V13.3488C34.6116 12.3566 34.8634 11.6279 35.3671 11.1628C35.8707 10.6667 36.5947 10.4186 37.539 10.4186C38.4834 10.4186 39.2073 10.6667 39.711 11.1628C40.2461 11.6279 40.5136 12.3566 40.5136 13.3488V24.6977C40.5136 26.3101 40.8442 27.5039 41.5052 28.2791C42.1662 29.0543 43.2207 29.4419 44.6687 29.4419C46.2425 29.4419 47.5331 28.9147 48.5404 27.8605C49.5477 26.7752 50.0513 25.3488 50.0513 23.5814V13.3488C50.0513 12.3566 50.3031 11.6279 50.8068 11.1628C51.3104 10.6667 52.0344 10.4186 52.9787 10.4186C53.923 10.4186 54.647 10.6667 55.1506 11.1628C55.6858 11.6279 55.9533 12.3566 55.9533 13.3488V30.9302C55.9533 32.9147 54.9933 33.907 53.0731 33.907C52.1603 33.907 51.452 33.6589 50.9484 33.1628C50.4448 32.6357 50.1929 31.8915 50.1929 30.9302V27.3954L50.854 28.7907C50.1929 30.4651 49.1857 31.7519 47.8321 32.6512C46.5101 33.5504 44.9362 34 43.1105 34Z" fill="#44BBA4"/>
    <path d="M72.6726 34C70.6266 34 68.9111 33.6589 67.5261 32.9767C66.1725 32.2946 65.1653 31.3023 64.5042 30C63.8432 28.6667 63.5127 27.0233 63.5127 25.0698V15.1628H61.0575C60.302 15.1628 59.7197 14.9767 59.3105 14.6047C58.9012 14.2016 58.6966 13.6589 58.6966 12.9767C58.6966 12.2636 58.9012 11.7209 59.3105 11.3488C59.7197 10.9767 60.302 10.7907 61.0575 10.7907H63.5127V6.55814C63.5127 5.5969 63.7645 4.86822 64.2682 4.37209C64.8033 3.87597 65.543 3.62791 66.4873 3.62791C67.4316 3.62791 68.1556 3.87597 68.6592 4.37209C69.1629 4.86822 69.4147 5.5969 69.4147 6.55814V10.7907H74.4196C75.1751 10.7907 75.7574 10.9767 76.1666 11.3488C76.5758 11.7209 76.7804 12.2636 76.7804 12.9767C76.7804 13.6589 76.5758 14.2016 76.1666 14.6047C75.7574 14.9767 75.1751 15.1628 74.4196 15.1628H69.4147V24.7442C69.4147 26.2326 69.7452 27.3488 70.4062 28.093C71.0673 28.8372 72.1375 29.2093 73.6169 29.2093C74.1521 29.2093 74.6242 29.1628 75.0334 29.0698C75.4426 28.9767 75.8046 28.9147 76.1194 28.8837C76.4971 28.8527 76.8119 28.9767 77.0637 29.2558C77.3155 29.5039 77.4414 30.031 77.4414 30.8372C77.4414 31.4574 77.3313 32.0155 77.1109 32.5116C76.9221 32.9767 76.5601 33.3023 76.025 33.4884C75.6158 33.6124 75.0806 33.7209 74.4196 33.814C73.7586 33.938 73.1762 34 72.6726 34Z" fill="#44BBA4"/>
    <path d="M83.2391 33.907C82.2633 33.907 81.5078 33.6589 80.9727 33.1628C80.4691 32.6357 80.2172 31.8915 80.2172 30.9302V13.3488C80.2172 12.3876 80.4691 11.6589 80.9727 11.1628C81.4763 10.6667 82.1846 10.4186 83.0974 10.4186C84.0103 10.4186 84.7185 10.6667 85.2221 11.1628C85.7258 11.6589 85.9776 12.3876 85.9776 13.3488V16.2791H85.5054C85.9461 14.4186 86.8118 13.0078 88.1023 12.0465C89.3929 11.0853 91.1084 10.5116 93.2489 10.3256C93.9099 10.2636 94.4293 10.4341 94.807 10.8372C95.2162 11.2093 95.4523 11.7984 95.5153 12.6047C95.5782 13.3798 95.3893 14.0155 94.9487 14.5116C94.5395 14.9767 93.9099 15.2558 93.06 15.3488L92.0213 15.4419C90.1011 15.6279 88.6532 16.2171 87.6774 17.2093C86.7016 18.1705 86.2137 19.5349 86.2137 21.3023V30.9302C86.2137 31.8915 85.9619 32.6357 85.4582 33.1628C84.9546 33.6589 84.2149 33.907 83.2391 33.907Z" fill="#44BBA4"/>
    <path d="M101.635 33.8605C100.69 33.8605 99.9662 33.5814 99.4626 33.0233C98.959 32.4651 98.7071 31.6899 98.7071 30.6977V13.6279C98.7071 12.6047 98.959 11.8295 99.4626 11.3023C99.9662 10.7442 100.69 10.4651 101.635 10.4651C102.579 10.4651 103.303 10.7442 103.806 11.3023C104.342 11.8295 104.609 12.6047 104.609 13.6279V30.6977C104.609 31.6899 104.357 32.4651 103.854 33.0233C103.35 33.5814 102.61 33.8605 101.635 33.8605ZM101.635 6.13953C100.533 6.13953 99.6672 5.87597 99.0376 5.34884C98.4396 4.7907 98.1405 4.03101 98.1405 3.06977C98.1405 2.07752 98.4396 1.31783 99.0376 0.790696C99.6672 0.263565 100.533 0 101.635 0C102.768 0 103.633 0.263565 104.231 0.790696C104.829 1.31783 105.129 2.07752 105.129 3.06977C105.129 4.03101 104.829 4.7907 104.231 5.34884C103.633 5.87597 102.768 6.13953 101.635 6.13953Z" fill="#44BBA4"/>
    <path d="M118.627 34C116.014 34 114.047 33.2713 112.725 31.814C111.403 30.3256 110.742 28.155 110.742 25.3023V3.30233C110.742 2.34109 110.994 1.6124 111.497 1.11628C112.001 0.620154 112.725 0.372092 113.669 0.372092C114.613 0.372092 115.337 0.620154 115.841 1.11628C116.376 1.6124 116.644 2.34109 116.644 3.30233V25.0233C116.644 26.4496 116.943 27.5039 117.541 28.186C118.17 28.8682 119.052 29.2093 120.185 29.2093C120.437 29.2093 120.673 29.2093 120.893 29.2093C121.114 29.1783 121.334 29.1473 121.554 29.1163C121.995 29.0543 122.294 29.1783 122.451 29.4884C122.609 29.7674 122.687 30.3566 122.687 31.2558C122.687 32.031 122.53 32.6357 122.215 33.0698C121.9 33.5039 121.381 33.7674 120.657 33.8605C120.342 33.8915 120.012 33.9225 119.666 33.9535C119.319 33.9845 118.973 34 118.627 34Z" fill="#44BBA4"/>
    <path d="M133.705 34C131.092 34 129.125 33.2713 127.803 31.814C126.481 30.3256 125.82 28.155 125.82 25.3023V3.30233C125.82 2.34109 126.071 1.6124 126.575 1.11628C127.079 0.620154 127.803 0.372092 128.747 0.372092C129.691 0.372092 130.415 0.620154 130.919 1.11628C131.454 1.6124 131.722 2.34109 131.722 3.30233V25.0233C131.722 26.4496 132.021 27.5039 132.619 28.186C133.248 28.8682 134.13 29.2093 135.263 29.2093C135.515 29.2093 135.751 29.2093 135.971 29.2093C136.191 29.1783 136.412 29.1473 136.632 29.1163C137.073 29.0543 137.372 29.1783 137.529 29.4884C137.687 29.7674 137.765 30.3566 137.765 31.2558C137.765 32.031 137.608 32.6357 137.293 33.0698C136.978 33.5039 136.459 33.7674 135.735 33.8605C135.42 33.8915 135.09 33.9225 134.743 33.9535C134.397 33.9845 134.051 34 133.705 34Z" fill="#44BBA4"/>
    <path d="M151.196 34C148.804 34 146.726 33.5194 144.963 32.5581C143.201 31.5969 141.831 30.2326 140.856 28.4651C139.88 26.6667 139.392 24.5581 139.392 22.1395C139.392 20.3101 139.66 18.6822 140.195 17.2558C140.761 15.7984 141.564 14.5581 142.603 13.5349C143.641 12.4806 144.885 11.6899 146.333 11.1628C147.781 10.6047 149.402 10.3256 151.196 10.3256C153.588 10.3256 155.666 10.8062 157.428 11.7674C159.191 12.7287 160.561 14.093 161.536 15.8605C162.512 17.6279 163 19.7209 163 22.1395C163 23.969 162.717 25.6124 162.15 27.0698C161.615 28.5271 160.828 29.7829 159.789 30.8372C158.751 31.8605 157.507 32.6512 156.059 33.2093C154.611 33.7364 152.99 34 151.196 34ZM151.196 29.5814C152.361 29.5814 153.384 29.3023 154.265 28.7442C155.146 28.186 155.823 27.3643 156.295 26.2791C156.799 25.1628 157.051 23.7829 157.051 22.1395C157.051 19.6589 156.516 17.814 155.445 16.6047C154.375 15.3643 152.959 14.7442 151.196 14.7442C150.031 14.7442 149.008 15.0233 148.127 15.5814C147.246 16.1085 146.553 16.9302 146.049 18.0465C145.577 19.1318 145.341 20.4961 145.341 22.1395C145.341 24.5891 145.876 26.4496 146.947 27.7209C148.017 28.9612 149.433 29.5814 151.196 29.5814Z" fill="#44BBA4"/>
    <path d="M4.99885 46.9695C4.83223 46.9695 4.70069 46.9135 4.60423 46.8017C4.50776 46.6796 4.45953 46.5169 4.45953 46.3135V37.19H1.49986C1.34201 37.19 1.21924 37.1392 1.13154 37.0374C1.04385 36.9357 1 36.8035 1 36.6408C1 36.4679 1.04385 36.3356 1.13154 36.2441C1.21924 36.1526 1.34201 36.1068 1.49986 36.1068H8.511C8.66885 36.1068 8.79162 36.1526 8.87931 36.2441C8.967 36.3356 9.01085 36.4679 9.01085 36.6408C9.01085 36.8137 8.967 36.951 8.87931 37.0527C8.79162 37.1442 8.66885 37.19 8.511 37.19H5.55132V46.3135C5.55132 46.5169 5.50309 46.6796 5.40663 46.8017C5.31893 46.9135 5.18301 46.9695 4.99885 46.9695Z" fill="#393E41"/>
    <path d="M11.5272 47C11.0098 47 10.5801 46.8932 10.2381 46.6796C9.90485 46.4558 9.65054 46.1253 9.47515 45.6879C9.30853 45.2506 9.22522 44.7064 9.22522 44.0555V39.9667C9.22522 39.7531 9.26907 39.5955 9.35676 39.4938C9.45323 39.392 9.58477 39.3412 9.75139 39.3412C9.92677 39.3412 10.0583 39.392 10.146 39.4938C10.2425 39.5955 10.2907 39.7531 10.2907 39.9667V44.0402C10.2907 44.6912 10.4047 45.1794 10.6327 45.5049C10.8695 45.8202 11.2378 45.9778 11.7377 45.9778C12.2814 45.9778 12.7242 45.7642 13.0662 45.337C13.4082 44.9098 13.5792 44.3504 13.5792 43.6588V39.9667C13.5792 39.7531 13.6231 39.5955 13.7108 39.4938C13.8072 39.392 13.9432 39.3412 14.1185 39.3412C14.2852 39.3412 14.4123 39.392 14.5 39.4938C14.5965 39.5955 14.6447 39.7531 14.6447 39.9667V46.3287C14.6447 46.7559 14.4737 46.9695 14.1317 46.9695C13.9651 46.9695 13.8335 46.9135 13.7371 46.8017C13.6494 46.6898 13.6055 46.5321 13.6055 46.3287V44.9404L13.7765 45.154C13.6012 45.754 13.3118 46.2117 12.9084 46.527C12.5137 46.8424 12.0534 47 11.5272 47Z" fill="#393E41"/>
    <path d="M21.0818 46.9695C20.9064 46.9695 20.7749 46.9135 20.6872 46.8017C20.5995 46.6898 20.5556 46.5321 20.5556 46.3287V39.9667C20.5556 39.7633 20.5995 39.6107 20.6872 39.509C20.7749 39.3971 20.902 39.3412 21.0686 39.3412C21.2353 39.3412 21.3624 39.3971 21.4501 39.509C21.5466 39.6107 21.5948 39.7633 21.5948 39.9667V41.2788L21.4501 41.0957C21.6343 40.5058 21.9324 40.0633 22.3446 39.7684C22.7655 39.4632 23.2478 39.3107 23.7915 39.3107C24.3002 39.3107 24.7211 39.4175 25.0543 39.6311C25.3963 39.8447 25.6507 40.1701 25.8173 40.6075C25.9839 41.0347 26.0672 41.5788 26.0672 42.2399V46.3287C26.0672 46.5321 26.019 46.6898 25.9225 46.8017C25.8348 46.9135 25.7077 46.9695 25.541 46.9695C25.3657 46.9695 25.2297 46.9135 25.1333 46.8017C25.0456 46.6898 25.0017 46.5321 25.0017 46.3287V42.3162C25.0017 41.6246 24.8833 41.1211 24.6466 40.8058C24.4186 40.4804 24.0502 40.3176 23.5416 40.3176C22.9541 40.3176 22.4849 40.5312 22.1341 40.9584C21.7921 41.3754 21.6211 41.9348 21.6211 42.6366V46.3287C21.6211 46.7559 21.4413 46.9695 21.0818 46.9695Z" fill="#393E41"/>
    <path d="M30.5575 47C30.0401 47 29.6104 46.8932 29.2684 46.6796C28.9351 46.4558 28.6808 46.1253 28.5054 45.6879C28.3388 45.2506 28.2555 44.7064 28.2555 44.0555V39.9667C28.2555 39.7531 28.2994 39.5955 28.3871 39.4938C28.4835 39.392 28.6151 39.3412 28.7817 39.3412C28.9571 39.3412 29.0886 39.392 29.1763 39.4938C29.2728 39.5955 29.321 39.7531 29.321 39.9667V44.0402C29.321 44.6912 29.435 45.1794 29.663 45.5049C29.8998 45.8202 30.2681 45.9778 30.768 45.9778C31.3117 45.9778 31.7545 45.7642 32.0965 45.337C32.4385 44.9098 32.6095 44.3504 32.6095 43.6588V39.9667C32.6095 39.7531 32.6534 39.5955 32.7411 39.4938C32.8375 39.392 32.9735 39.3412 33.1488 39.3412C33.3155 39.3412 33.4426 39.392 33.5303 39.4938C33.6268 39.5955 33.675 39.7531 33.675 39.9667V46.3287C33.675 46.7559 33.504 46.9695 33.162 46.9695C32.9954 46.9695 32.8638 46.9135 32.7674 46.8017C32.6797 46.6898 32.6358 46.5321 32.6358 46.3287V44.9404L32.8068 45.154C32.6314 45.754 32.3421 46.2117 31.9387 46.527C31.544 46.8424 31.0836 47 30.5575 47Z" fill="#393E41"/>
    <path d="M38.4966 47C37.9967 47 37.5758 46.8983 37.2338 46.6949C36.9006 46.4813 36.6506 46.1761 36.484 45.7795C36.3174 45.3726 36.2341 44.8793 36.2341 44.2996V40.4092H35.3528C35.2037 40.4092 35.0897 40.3685 35.0108 40.2871C34.9318 40.1956 34.8924 40.0735 34.8924 39.9209C34.8924 39.7684 34.9318 39.6514 35.0108 39.57C35.0897 39.4887 35.2037 39.448 35.3528 39.448H36.2341V37.6935C36.2341 37.4901 36.2823 37.3375 36.3788 37.2358C36.4753 37.1239 36.6068 37.068 36.7734 37.068C36.94 37.068 37.0672 37.1239 37.1549 37.2358C37.2514 37.3375 37.2996 37.4901 37.2996 37.6935V39.448H38.957C39.1061 39.448 39.2201 39.4887 39.299 39.57C39.3779 39.6514 39.4174 39.7684 39.4174 39.9209C39.4174 40.0735 39.3779 40.1956 39.299 40.2871C39.2201 40.3685 39.1061 40.4092 38.957 40.4092H37.2996V44.1775C37.2996 44.7573 37.4048 45.1997 37.6153 45.5049C37.8257 45.7998 38.1678 45.9473 38.6413 45.9473C38.8079 45.9473 38.9482 45.927 39.0622 45.8863C39.185 45.8456 39.2859 45.8252 39.3648 45.8252C39.4437 45.8151 39.5095 45.8456 39.5621 45.9168C39.6147 45.988 39.641 46.11 39.641 46.2829C39.641 46.405 39.6191 46.5169 39.5752 46.6186C39.5402 46.7203 39.4744 46.7915 39.3779 46.8322C39.2727 46.8729 39.1324 46.9085 38.957 46.939C38.7904 46.9797 38.6369 47 38.4966 47Z" fill="#393E41"/>
    <path d="M41.3328 46.9695C41.1574 46.9695 41.0214 46.9135 40.925 46.8017C40.8373 46.6898 40.7934 46.5321 40.7934 46.3287V39.9667C40.7934 39.7633 40.8373 39.6107 40.925 39.509C41.0127 39.3971 41.1398 39.3412 41.3064 39.3412C41.4731 39.3412 41.6002 39.3971 41.6879 39.509C41.7844 39.6107 41.8326 39.7633 41.8326 39.9667V41.2025H41.7011C41.8414 40.6024 42.1088 40.1396 42.5035 39.8141C42.8981 39.4887 43.3848 39.3158 43.9636 39.2954C44.0951 39.2853 44.2003 39.3209 44.2793 39.4022C44.3582 39.4734 44.402 39.6006 44.4108 39.7836C44.4196 39.9565 44.3845 40.0939 44.3056 40.1956C44.2267 40.2973 44.1039 40.3583 43.9373 40.3786L43.7268 40.4092C43.1305 40.4702 42.6701 40.6939 42.3456 41.0804C42.0299 41.4568 41.8721 41.9755 41.8721 42.6366V46.3287C41.8721 46.5321 41.8238 46.6898 41.7274 46.8017C41.6397 46.9135 41.5081 46.9695 41.3328 46.9695Z" fill="#393E41"/>
    <path d="M46.2971 46.939C46.1217 46.939 45.9902 46.883 45.9025 46.7712C45.8148 46.6491 45.7709 46.4813 45.7709 46.2677V40.0277C45.7709 39.8141 45.8148 39.6514 45.9025 39.5395C45.9902 39.4276 46.1217 39.3717 46.2971 39.3717C46.4637 39.3717 46.5953 39.4276 46.6917 39.5395C46.7882 39.6514 46.8364 39.8141 46.8364 40.0277V46.2677C46.8364 46.4813 46.7882 46.6491 46.6917 46.7712C46.604 46.883 46.4725 46.939 46.2971 46.939ZM46.2971 37.663C46.0779 37.663 45.9069 37.5969 45.7841 37.4646C45.6613 37.3222 45.5999 37.1341 45.5999 36.9001C45.5999 36.656 45.6613 36.473 45.7841 36.3509C45.9069 36.2187 46.0779 36.1526 46.2971 36.1526C46.5251 36.1526 46.6961 36.2187 46.8101 36.3509C46.9329 36.473 46.9943 36.656 46.9943 36.9001C46.9943 37.1341 46.9329 37.3222 46.8101 37.4646C46.6961 37.5969 46.5251 37.663 46.2971 37.663Z" fill="#393E41"/>
    <path d="M51.8011 47C51.1609 47 50.6084 46.8373 50.1436 46.5118C49.6789 46.1863 49.3193 45.7337 49.065 45.154C48.8195 44.564 48.6967 43.8826 48.6967 43.1096C48.6967 42.5196 48.7668 41.9908 48.9072 41.5229C49.0475 41.055 49.2535 40.6583 49.5254 40.3329C49.7972 39.9972 50.1217 39.7429 50.4988 39.57C50.8847 39.3971 51.3187 39.3107 51.8011 39.3107C52.1168 39.3107 52.4456 39.3666 52.7876 39.4785C53.1296 39.5904 53.4409 39.7836 53.7216 40.0583C53.8092 40.1294 53.8662 40.2159 53.8926 40.3176C53.9189 40.4193 53.9189 40.521 53.8926 40.6227C53.8662 40.7143 53.8224 40.7957 53.761 40.8669C53.6996 40.9279 53.6207 40.9635 53.5242 40.9736C53.4366 40.9838 53.3445 40.9482 53.248 40.8669C53.02 40.6634 52.7876 40.521 52.5508 40.4397C52.3141 40.3583 52.0861 40.3176 51.8668 40.3176C51.5248 40.3176 51.2267 40.3837 50.9723 40.516C50.718 40.638 50.5032 40.816 50.3278 41.0499C50.1524 41.2839 50.0165 41.5737 49.92 41.9196C49.8323 42.2654 49.7885 42.6671 49.7885 43.1248C49.7885 44.0097 49.9683 44.7115 50.3278 45.2302C50.6873 45.7388 51.2004 45.9931 51.8668 45.9931C52.0861 45.9931 52.3097 45.9524 52.5377 45.871C52.7745 45.7896 53.0112 45.6472 53.248 45.4438C53.3445 45.3625 53.4366 45.3269 53.5242 45.337C53.6119 45.3472 53.6865 45.3879 53.7479 45.4591C53.8092 45.5201 53.8487 45.6015 53.8662 45.7032C53.8926 45.8049 53.8926 45.9066 53.8662 46.0083C53.8399 46.0999 53.7829 46.1812 53.6953 46.2524C53.4146 46.5169 53.1077 46.7101 52.7745 46.8322C52.4412 46.9441 52.1168 47 51.8011 47Z" fill="#393E41"/>
    <path d="M55.9695 46.939C55.7941 46.939 55.6625 46.883 55.5748 46.7712C55.4872 46.6491 55.4433 46.4813 55.4433 46.2677V40.0277C55.4433 39.8141 55.4872 39.6514 55.5748 39.5395C55.6625 39.4276 55.7941 39.3717 55.9695 39.3717C56.1361 39.3717 56.2676 39.4276 56.3641 39.5395C56.4606 39.6514 56.5088 39.8141 56.5088 40.0277V46.2677C56.5088 46.4813 56.4606 46.6491 56.3641 46.7712C56.2764 46.883 56.1449 46.939 55.9695 46.939ZM55.9695 37.663C55.7502 37.663 55.5792 37.5969 55.4565 37.4646C55.3337 37.3222 55.2723 37.1341 55.2723 36.9001C55.2723 36.656 55.3337 36.473 55.4565 36.3509C55.5792 36.2187 55.7502 36.1526 55.9695 36.1526C56.1975 36.1526 56.3685 36.2187 56.4825 36.3509C56.6053 36.473 56.6666 36.656 56.6666 36.9001C56.6666 37.1341 56.6053 37.3222 56.4825 37.4646C56.3685 37.5969 56.1975 37.663 55.9695 37.663Z" fill="#393E41"/>
    <path d="M61.4208 47C60.7982 47 60.2589 46.8424 59.8029 46.527C59.3469 46.2117 58.9917 45.7693 58.7374 45.1997C58.4918 44.62 58.3691 43.9385 58.3691 43.1553C58.3691 42.5654 58.4392 42.0365 58.5795 41.5687C58.7198 41.0906 58.9259 40.6838 59.1978 40.3481C59.4696 40.0125 59.7897 39.7582 60.158 39.5853C60.5351 39.4022 60.956 39.3107 61.4208 39.3107C62.0434 39.3107 62.5828 39.4683 63.0388 39.7836C63.4948 40.0989 63.8456 40.5465 64.0911 41.1262C64.3454 41.6958 64.4726 42.3722 64.4726 43.1553C64.4726 43.7453 64.4024 44.2742 64.2621 44.742C64.1218 45.2099 63.9157 45.6167 63.6439 45.9626C63.372 46.2982 63.0475 46.5576 62.6705 46.7406C62.3021 46.9135 61.8856 47 61.4208 47ZM61.4208 46.0083C61.8154 46.0083 62.1618 45.8964 62.46 45.6727C62.7582 45.4489 62.9862 45.1234 63.144 44.6963C63.3106 44.2691 63.3939 43.7554 63.3939 43.1553C63.3939 42.2298 63.2142 41.5229 62.8546 41.0347C62.5038 40.5465 62.0259 40.3024 61.4208 40.3024C61.0174 40.3024 60.6667 40.4142 60.3685 40.638C60.0791 40.8516 59.8511 41.172 59.6845 41.5992C59.5266 42.0162 59.4477 42.5349 59.4477 43.1553C59.4477 44.0707 59.6275 44.7776 59.987 45.276C60.3466 45.7642 60.8245 46.0083 61.4208 46.0083Z" fill="#393E41"/>
    <path d="M66.8622 46.9695C66.6868 46.9695 66.5553 46.9135 66.4676 46.8017C66.3799 46.6898 66.336 46.5321 66.336 46.3287V39.9667C66.336 39.7633 66.3799 39.6107 66.4676 39.509C66.5553 39.3971 66.6824 39.3412 66.8491 39.3412C67.0157 39.3412 67.1428 39.3971 67.2305 39.509C67.327 39.6107 67.3752 39.7633 67.3752 39.9667V41.2788L67.2305 41.0957C67.4147 40.5058 67.7128 40.0633 68.125 39.7684C68.5459 39.4632 69.0283 39.3107 69.572 39.3107C70.0806 39.3107 70.5015 39.4175 70.8347 39.6311C71.1768 39.8447 71.4311 40.1701 71.5977 40.6075C71.7643 41.0347 71.8476 41.5788 71.8476 42.2399V46.3287C71.8476 46.5321 71.7994 46.6898 71.7029 46.8017C71.6152 46.9135 71.4881 46.9695 71.3214 46.9695C71.1461 46.9695 71.0101 46.9135 70.9137 46.8017C70.826 46.6898 70.7821 46.5321 70.7821 46.3287V42.3162C70.7821 41.6246 70.6637 41.1211 70.427 40.8058C70.199 40.4804 69.8306 40.3176 69.322 40.3176C68.7345 40.3176 68.2653 40.5312 67.9145 40.9584C67.5725 41.3754 67.4015 41.9348 67.4015 42.6366V46.3287C67.4015 46.7559 67.2217 46.9695 66.8622 46.9695Z" fill="#393E41"/>
    <path d="M74.6015 46.939C74.4262 46.939 74.2946 46.883 74.2069 46.7712C74.1192 46.6491 74.0754 46.4813 74.0754 46.2677V40.0277C74.0754 39.8141 74.1192 39.6514 74.2069 39.5395C74.2946 39.4276 74.4262 39.3717 74.6015 39.3717C74.7682 39.3717 74.8997 39.4276 74.9962 39.5395C75.0926 39.6514 75.1409 39.8141 75.1409 40.0277V46.2677C75.1409 46.4813 75.0926 46.6491 74.9962 46.7712C74.9085 46.883 74.7769 46.939 74.6015 46.939ZM74.6015 37.663C74.3823 37.663 74.2113 37.5969 74.0885 37.4646C73.9658 37.3222 73.9044 37.1341 73.9044 36.9001C73.9044 36.656 73.9658 36.473 74.0885 36.3509C74.2113 36.2187 74.3823 36.1526 74.6015 36.1526C74.8296 36.1526 75.0006 36.2187 75.1146 36.3509C75.2373 36.473 75.2987 36.656 75.2987 36.9001C75.2987 37.1341 75.2373 37.3222 75.1146 37.4646C75.0006 37.5969 74.8296 37.663 74.6015 37.663Z" fill="#393E41"/>
    <path d="M79.553 47C79.1584 47 78.7594 46.9441 78.356 46.8322C77.9614 46.7203 77.5931 46.527 77.2511 46.2524C77.1634 46.1812 77.102 46.0999 77.0669 46.0083C77.0318 45.9066 77.0187 45.81 77.0275 45.7184C77.045 45.6167 77.0801 45.5303 77.1327 45.4591C77.1941 45.3879 77.2642 45.3472 77.3431 45.337C77.4308 45.3167 77.5273 45.337 77.6325 45.3981C77.9745 45.6422 78.3034 45.8151 78.6191 45.9168C78.9436 46.0083 79.2636 46.0541 79.5793 46.0541C80.0792 46.0541 80.4563 45.9473 80.7106 45.7337C80.9649 45.5201 81.0921 45.2302 81.0921 44.8641C81.0921 44.5793 81.0088 44.3555 80.8421 44.1928C80.6755 44.0199 80.4124 43.8877 80.0529 43.7961L78.8559 43.491C78.3034 43.3588 77.8912 43.1299 77.6194 42.8044C77.3563 42.479 77.2248 42.0569 77.2248 41.5381C77.2248 41.0804 77.3256 40.6889 77.5273 40.3634C77.7378 40.0277 78.0315 39.7684 78.4086 39.5853C78.7857 39.4022 79.2242 39.3107 79.724 39.3107C80.1099 39.3107 80.4738 39.3717 80.8158 39.4938C81.1666 39.6056 81.4823 39.7887 81.7629 40.043C81.8506 40.1142 81.9076 40.2006 81.9339 40.3024C81.969 40.3939 81.9734 40.4905 81.9471 40.5922C81.9296 40.6838 81.8901 40.7651 81.8287 40.8363C81.7673 40.8974 81.6928 40.933 81.6051 40.9431C81.5174 40.9533 81.4253 40.9228 81.3288 40.8516C81.0658 40.6482 80.7983 40.5007 80.5264 40.4092C80.2546 40.3074 79.9871 40.2566 79.724 40.2566C79.2329 40.2566 78.8603 40.3685 78.6059 40.5922C78.3516 40.816 78.2245 41.111 78.2245 41.4771C78.2245 41.7619 78.3034 41.9958 78.4612 42.1789C78.6191 42.362 78.8646 42.4942 79.1979 42.5756L80.3949 42.8655C80.9649 43.0079 81.3902 43.2367 81.6709 43.552C81.9602 43.8571 82.1049 44.2742 82.1049 44.8031C82.1049 45.4743 81.8725 46.0083 81.4078 46.405C80.943 46.8017 80.3247 47 79.553 47Z" fill="#393E41"/>
    <path d="M86.4927 47C85.9928 47 85.5719 46.8983 85.2299 46.6949C84.8966 46.4813 84.6467 46.1761 84.4801 45.7795C84.3135 45.3726 84.2301 44.8793 84.2301 44.2996V40.4092H83.3488C83.1997 40.4092 83.0857 40.3685 83.0068 40.2871C82.9279 40.1956 82.8884 40.0735 82.8884 39.9209C82.8884 39.7684 82.9279 39.6514 83.0068 39.57C83.0857 39.4887 83.1997 39.448 83.3488 39.448H84.2301V37.6935C84.2301 37.4901 84.2784 37.3375 84.3748 37.2358C84.4713 37.1239 84.6028 37.068 84.7695 37.068C84.9361 37.068 85.0632 37.1239 85.1509 37.2358C85.2474 37.3375 85.2956 37.4901 85.2956 37.6935V39.448H86.953C87.1021 39.448 87.2161 39.4887 87.2951 39.57C87.374 39.6514 87.4134 39.7684 87.4134 39.9209C87.4134 40.0735 87.374 40.1956 87.2951 40.2871C87.2161 40.3685 87.1021 40.4092 86.953 40.4092H85.2956V44.1775C85.2956 44.7573 85.4009 45.1997 85.6113 45.5049C85.8218 45.7998 86.1638 45.9473 86.6374 45.9473C86.804 45.9473 86.9443 45.927 87.0583 45.8863C87.1811 45.8456 87.2819 45.8252 87.3608 45.8252C87.4397 45.8151 87.5055 45.8456 87.5581 45.9168C87.6107 45.988 87.6371 46.11 87.6371 46.2829C87.6371 46.405 87.6151 46.5169 87.5713 46.6186C87.5362 46.7203 87.4704 46.7915 87.374 46.8322C87.2687 46.8729 87.1284 46.9085 86.953 46.939C86.7864 46.9797 86.633 47 86.4927 47Z" fill="#393E41"/>
    <path d="M90.8021 47C90.3636 47 89.969 46.9034 89.6182 46.7101C89.2762 46.5067 89.0043 46.2321 88.8026 45.8863C88.6009 45.5405 88.5001 45.154 88.5001 44.7268C88.5001 44.1775 88.6185 43.7453 88.8552 43.43C89.1008 43.1147 89.4998 42.8909 90.0523 42.7587C90.6135 42.6264 91.3765 42.5603 92.3411 42.5603H92.933V43.3689H92.3542C91.6439 43.3689 91.0827 43.4096 90.6705 43.491C90.2671 43.5622 89.9821 43.6893 89.8155 43.8724C89.6577 44.0555 89.5787 44.3148 89.5787 44.6505C89.5787 45.0675 89.7015 45.4082 89.947 45.6727C90.2014 45.9371 90.5434 46.0693 90.9731 46.0693C91.3238 46.0693 91.6308 45.9727 91.8939 45.7795C92.1657 45.5862 92.3762 45.3218 92.5252 44.9861C92.6831 44.6505 92.762 44.264 92.762 43.8266V42.0874C92.762 41.4568 92.6524 41.0042 92.4332 40.7295C92.2139 40.4448 91.8544 40.3024 91.3545 40.3024C91.0476 40.3024 90.7407 40.3481 90.4337 40.4397C90.1268 40.5312 89.8023 40.6787 89.4603 40.8821C89.3376 40.9533 89.2323 40.9787 89.1446 40.9584C89.0569 40.9279 88.9868 40.8719 88.9342 40.7906C88.8816 40.7092 88.8509 40.6177 88.8421 40.516C88.8333 40.4041 88.8509 40.2973 88.8947 40.1956C88.9473 40.0939 89.0263 40.0125 89.1315 39.9515C89.5173 39.7277 89.8988 39.565 90.2759 39.4632C90.653 39.3615 91.0125 39.3107 91.3545 39.3107C91.907 39.3107 92.363 39.4175 92.7226 39.6311C93.0821 39.8345 93.3496 40.1498 93.525 40.577C93.7003 40.994 93.788 41.5331 93.788 42.1942V46.3287C93.788 46.5321 93.7442 46.6898 93.6565 46.8017C93.5776 46.9135 93.4592 46.9695 93.3013 46.9695C93.1347 46.9695 93.0076 46.9135 92.9199 46.8017C92.8322 46.6898 92.7883 46.5321 92.7883 46.3287V45.1387H92.9067C92.8366 45.5252 92.7006 45.8558 92.4989 46.1304C92.306 46.405 92.0649 46.6186 91.7755 46.7712C91.4861 46.9237 91.1616 47 90.8021 47Z" fill="#393E41"/>
    <path d="M102.116 47C101.546 47 101.046 46.8424 100.616 46.527C100.195 46.2117 99.8664 45.7693 99.6296 45.1997C99.4016 44.62 99.2876 43.9385 99.2876 43.1553C99.2876 42.362 99.4016 41.6805 99.6296 41.111C99.8664 40.5312 100.195 40.0888 100.616 39.7836C101.046 39.4683 101.546 39.3107 102.116 39.3107C102.695 39.3107 103.19 39.4785 103.602 39.8141C104.014 40.1498 104.291 40.6024 104.431 41.172H104.286V36.6255C104.286 36.4221 104.33 36.2695 104.418 36.1678C104.514 36.0559 104.65 36 104.825 36C104.992 36 105.119 36.0559 105.207 36.1678C105.303 36.2695 105.352 36.4221 105.352 36.6255V46.3287C105.352 46.5321 105.308 46.6898 105.22 46.8017C105.132 46.9135 105.001 46.9695 104.825 46.9695C104.659 46.9695 104.527 46.9135 104.431 46.8017C104.343 46.6898 104.299 46.5321 104.299 46.3287V44.8793L104.444 45.0929C104.304 45.6727 104.023 46.1355 103.602 46.4813C103.19 46.8271 102.695 47 102.116 47ZM102.339 46.0083C102.734 46.0083 103.08 45.8964 103.379 45.6727C103.677 45.4489 103.905 45.1234 104.063 44.6963C104.229 44.2691 104.312 43.7554 104.312 43.1553C104.312 42.2298 104.133 41.5229 103.773 41.0347C103.422 40.5465 102.944 40.3024 102.339 40.3024C101.936 40.3024 101.585 40.4142 101.287 40.638C100.998 40.8516 100.77 41.172 100.603 41.5992C100.445 42.0162 100.366 42.5349 100.366 43.1553C100.366 44.0707 100.546 44.7776 100.906 45.276C101.265 45.7642 101.743 46.0083 102.339 46.0083Z" fill="#393E41"/>
    <path d="M110.495 47C109.82 47 109.237 46.8474 108.745 46.5423C108.263 46.227 107.886 45.7846 107.614 45.215C107.351 44.6454 107.22 43.9639 107.22 43.1706C107.22 42.3976 107.351 41.7263 107.614 41.1567C107.877 40.577 108.237 40.1244 108.693 39.7989C109.158 39.4734 109.693 39.3107 110.298 39.3107C110.727 39.3107 111.113 39.3971 111.455 39.57C111.797 39.7328 112.087 39.9718 112.323 40.2871C112.569 40.6024 112.753 40.9838 112.876 41.4313C113.007 41.8789 113.073 42.3823 113.073 42.9417C113.073 43.1045 113.034 43.2265 112.955 43.3079C112.876 43.3791 112.762 43.4147 112.613 43.4147H108.035V42.6061H112.363L112.152 42.8044C112.152 42.2552 112.082 41.7924 111.942 41.4161C111.802 41.0296 111.596 40.7346 111.324 40.5312C111.061 40.3278 110.727 40.2261 110.324 40.2261C109.877 40.2261 109.495 40.3481 109.18 40.5922C108.873 40.8262 108.64 41.1567 108.482 41.5839C108.325 42.0009 108.246 42.4891 108.246 43.0485V43.1401C108.246 44.0758 108.439 44.7878 108.824 45.276C109.219 45.7642 109.776 46.0083 110.495 46.0083C110.793 46.0083 111.087 45.9626 111.376 45.871C111.674 45.7795 111.964 45.6269 112.244 45.4133C112.367 45.3218 112.477 45.2811 112.573 45.2913C112.679 45.2913 112.762 45.3269 112.823 45.3981C112.885 45.4591 112.924 45.5405 112.942 45.6422C112.968 45.7337 112.959 45.8354 112.915 45.9473C112.88 46.0592 112.806 46.1558 112.692 46.2372C112.402 46.4813 112.06 46.6694 111.666 46.8017C111.271 46.9339 110.881 47 110.495 47Z" fill="#393E41"/>
    <path d="M121.769 47C121.19 47 120.69 46.8271 120.269 46.4813C119.857 46.1355 119.581 45.6727 119.44 45.0929L119.585 44.9251V46.3287C119.585 46.5321 119.537 46.6898 119.44 46.8017C119.353 46.9135 119.225 46.9695 119.059 46.9695C118.883 46.9695 118.752 46.9135 118.664 46.8017C118.577 46.6898 118.533 46.5321 118.533 46.3287V36.6255C118.533 36.4221 118.577 36.2695 118.664 36.1678C118.752 36.0559 118.883 36 119.059 36C119.225 36 119.357 36.0559 119.453 36.1678C119.55 36.2695 119.598 36.4221 119.598 36.6255V41.172H119.44C119.589 40.6024 119.87 40.1498 120.282 39.8141C120.694 39.4785 121.19 39.3107 121.769 39.3107C122.347 39.3107 122.847 39.4683 123.268 39.7836C123.689 40.0888 124.014 40.5312 124.242 41.111C124.478 41.6805 124.597 42.362 124.597 43.1553C124.597 43.9385 124.478 44.62 124.242 45.1997C124.014 45.7693 123.685 46.2117 123.255 46.527C122.834 46.8424 122.339 47 121.769 47ZM121.545 46.0083C121.948 46.0083 122.295 45.8964 122.584 45.6727C122.882 45.4489 123.11 45.1234 123.268 44.6963C123.435 44.2691 123.518 43.7554 123.518 43.1553C123.518 42.2298 123.338 41.5229 122.979 41.0347C122.628 40.5465 122.15 40.3024 121.545 40.3024C121.15 40.3024 120.804 40.4142 120.506 40.638C120.208 40.8516 119.975 41.172 119.809 41.5992C119.651 42.0162 119.572 42.5349 119.572 43.1553C119.572 44.0707 119.752 44.7776 120.111 45.276C120.471 45.7642 120.949 46.0083 121.545 46.0083Z" fill="#393E41"/>
    <path d="M129.122 47C128.499 47 127.96 46.8424 127.504 46.527C127.048 46.2117 126.693 45.7693 126.438 45.1997C126.193 44.62 126.07 43.9385 126.07 43.1553C126.07 42.5654 126.14 42.0365 126.281 41.5687C126.421 41.0906 126.627 40.6838 126.899 40.3481C127.171 40.0125 127.491 39.7582 127.859 39.5853C128.236 39.4022 128.657 39.3107 129.122 39.3107C129.744 39.3107 130.284 39.4683 130.74 39.7836C131.196 40.0989 131.547 40.5465 131.792 41.1262C132.046 41.6958 132.174 42.3722 132.174 43.1553C132.174 43.7453 132.103 44.2742 131.963 44.742C131.823 45.2099 131.617 45.6167 131.345 45.9626C131.073 46.2982 130.749 46.5576 130.371 46.7406C130.003 46.9135 129.587 47 129.122 47ZM129.122 46.0083C129.516 46.0083 129.863 45.8964 130.161 45.6727C130.459 45.4489 130.687 45.1234 130.845 44.6963C131.012 44.2691 131.095 43.7554 131.095 43.1553C131.095 42.2298 130.915 41.5229 130.556 41.0347C130.205 40.5465 129.727 40.3024 129.122 40.3024C128.718 40.3024 128.368 40.4142 128.069 40.638C127.78 40.8516 127.552 41.172 127.385 41.5992C127.228 42.0162 127.149 42.5349 127.149 43.1553C127.149 44.0707 127.328 44.7776 127.688 45.276C128.048 45.7642 128.525 46.0083 129.122 46.0083Z" fill="#393E41"/>
    <path d="M135.984 47C135.352 47 134.87 46.7762 134.537 46.3287C134.204 45.8812 134.037 45.2404 134.037 44.4064V36.6255C134.037 36.4221 134.081 36.2695 134.169 36.1678C134.256 36.0559 134.388 36 134.563 36C134.73 36 134.861 36.0559 134.958 36.1678C135.054 36.2695 135.103 36.4221 135.103 36.6255V44.3148C135.103 44.8641 135.195 45.276 135.379 45.5506C135.572 45.8151 135.852 45.9473 136.221 45.9473C136.3 45.9473 136.37 45.9422 136.431 45.932C136.492 45.9219 136.554 45.9168 136.615 45.9168C136.712 45.9066 136.777 45.932 136.813 45.9931C136.856 46.0541 136.878 46.1761 136.878 46.3592C136.878 46.5423 136.843 46.6796 136.773 46.7712C136.703 46.8627 136.589 46.9237 136.431 46.9542C136.361 46.9644 136.286 46.9746 136.207 46.9847C136.129 46.9949 136.054 47 135.984 47Z" fill="#393E41"/>
    <path d="M140.285 47C139.891 47 139.492 46.9441 139.088 46.8322C138.694 46.7203 138.325 46.527 137.983 46.2524C137.896 46.1812 137.834 46.0999 137.799 46.0083C137.764 45.9066 137.751 45.81 137.76 45.7184C137.777 45.6167 137.812 45.5303 137.865 45.4591C137.926 45.3879 137.997 45.3472 138.076 45.337C138.163 45.3167 138.26 45.337 138.365 45.3981C138.707 45.6422 139.036 45.8151 139.352 45.9168C139.676 46.0083 139.996 46.0541 140.312 46.0541C140.812 46.0541 141.189 45.9473 141.443 45.7337C141.697 45.5201 141.824 45.2302 141.824 44.8641C141.824 44.5793 141.741 44.3555 141.575 44.1928C141.408 44.0199 141.145 43.8877 140.785 43.7961L139.588 43.491C139.036 43.3588 138.624 43.1299 138.352 42.8044C138.089 42.479 137.957 42.0569 137.957 41.5381C137.957 41.0804 138.058 40.6889 138.26 40.3634C138.47 40.0277 138.764 39.7684 139.141 39.5853C139.518 39.4022 139.957 39.3107 140.456 39.3107C140.842 39.3107 141.206 39.3717 141.548 39.4938C141.899 39.6056 142.215 39.7887 142.495 40.043C142.583 40.1142 142.64 40.2006 142.666 40.3024C142.701 40.3939 142.706 40.4905 142.68 40.5922C142.662 40.6838 142.622 40.7651 142.561 40.8363C142.5 40.8974 142.425 40.933 142.337 40.9431C142.25 40.9533 142.158 40.9228 142.061 40.8516C141.798 40.6482 141.531 40.5007 141.259 40.4092C140.987 40.3074 140.72 40.2566 140.456 40.2566C139.965 40.2566 139.593 40.3685 139.338 40.5922C139.084 40.816 138.957 41.111 138.957 41.4771C138.957 41.7619 139.036 41.9958 139.194 42.1789C139.352 42.362 139.597 42.4942 139.93 42.5756L141.127 42.8655C141.697 43.0079 142.123 43.2367 142.403 43.552C142.693 43.8571 142.837 44.2742 142.837 44.8031C142.837 45.4743 142.605 46.0083 142.14 46.405C141.675 46.8017 141.057 47 140.285 47Z" fill="#393E41"/>
    <path d="M145.25 46.939C145.075 46.939 144.943 46.883 144.856 46.7712C144.768 46.6491 144.724 46.4813 144.724 46.2677V40.0277C144.724 39.8141 144.768 39.6514 144.856 39.5395C144.943 39.4276 145.075 39.3717 145.25 39.3717C145.417 39.3717 145.549 39.4276 145.645 39.5395C145.742 39.6514 145.79 39.8141 145.79 40.0277V46.2677C145.79 46.4813 145.742 46.6491 145.645 46.7712C145.557 46.883 145.426 46.939 145.25 46.939ZM145.25 37.663C145.031 37.663 144.86 37.5969 144.737 37.4646C144.615 37.3222 144.553 37.1341 144.553 36.9001C144.553 36.656 144.615 36.473 144.737 36.3509C144.86 36.2187 145.031 36.1526 145.25 36.1526C145.478 36.1526 145.649 36.2187 145.763 36.3509C145.886 36.473 145.948 36.656 145.948 36.9001C145.948 37.1341 145.886 37.3222 145.763 37.4646C145.649 37.5969 145.478 37.663 145.25 37.663Z" fill="#393E41"/>
    <path d="M149.991 47C149.36 47 148.878 46.7762 148.544 46.3287C148.211 45.8812 148.045 45.2404 148.045 44.4064V36.6255C148.045 36.4221 148.088 36.2695 148.176 36.1678C148.264 36.0559 148.395 36 148.571 36C148.737 36 148.869 36.0559 148.965 36.1678C149.062 36.2695 149.11 36.4221 149.11 36.6255V44.3148C149.11 44.8641 149.202 45.276 149.386 45.5506C149.579 45.8151 149.86 45.9473 150.228 45.9473C150.307 45.9473 150.377 45.9422 150.439 45.932C150.5 45.9219 150.561 45.9168 150.623 45.9168C150.719 45.9066 150.785 45.932 150.82 45.9931C150.864 46.0541 150.886 46.1761 150.886 46.3592C150.886 46.5423 150.851 46.6796 150.781 46.7712C150.711 46.8627 150.597 46.9237 150.439 46.9542C150.369 46.9644 150.294 46.9746 150.215 46.9847C150.136 46.9949 150.062 47 149.991 47Z" fill="#393E41"/>
    <path d="M154.147 47C153.515 47 153.033 46.7762 152.7 46.3287C152.367 45.8812 152.2 45.2404 152.2 44.4064V36.6255C152.2 36.4221 152.244 36.2695 152.332 36.1678C152.419 36.0559 152.551 36 152.726 36C152.893 36 153.024 36.0559 153.121 36.1678C153.217 36.2695 153.265 36.4221 153.265 36.6255V44.3148C153.265 44.8641 153.358 45.276 153.542 45.5506C153.735 45.8151 154.015 45.9473 154.384 45.9473C154.462 45.9473 154.533 45.9422 154.594 45.932C154.655 45.9219 154.717 45.9168 154.778 45.9168C154.875 45.9066 154.94 45.932 154.976 45.9931C155.019 46.0541 155.041 46.1761 155.041 46.3592C155.041 46.5423 155.006 46.6796 154.936 46.7712C154.866 46.8627 154.752 46.9237 154.594 46.9542C154.524 46.9644 154.449 46.9746 154.37 46.9847C154.291 46.9949 154.217 47 154.147 47Z" fill="#393E41"/>
    <path d="M158.948 47C158.326 47 157.786 46.8424 157.33 46.527C156.874 46.2117 156.519 45.7693 156.265 45.1997C156.019 44.62 155.896 43.9385 155.896 43.1553C155.896 42.5654 155.967 42.0365 156.107 41.5687C156.247 41.0906 156.453 40.6838 156.725 40.3481C156.997 40.0125 157.317 39.7582 157.685 39.5853C158.063 39.4022 158.483 39.3107 158.948 39.3107C159.571 39.3107 160.11 39.4683 160.566 39.7836C161.022 40.0989 161.373 40.5465 161.619 41.1262C161.873 41.6958 162 42.3722 162 43.1553C162 43.7453 161.93 44.2742 161.79 44.742C161.649 45.2099 161.443 45.6167 161.171 45.9626C160.899 46.2982 160.575 46.5576 160.198 46.7406C159.83 46.9135 159.413 47 158.948 47ZM158.948 46.0083C159.343 46.0083 159.689 45.8964 159.987 45.6727C160.286 45.4489 160.514 45.1234 160.671 44.6963C160.838 44.2691 160.921 43.7554 160.921 43.1553C160.921 42.2298 160.742 41.5229 160.382 41.0347C160.031 40.5465 159.553 40.3024 158.948 40.3024C158.545 40.3024 158.194 40.4142 157.896 40.638C157.607 40.8516 157.379 41.172 157.212 41.5992C157.054 42.0162 156.975 42.5349 156.975 43.1553C156.975 44.0707 157.155 44.7776 157.514 45.276C157.874 45.7642 158.352 46.0083 158.948 46.0083Z" fill="#393E41"/>
</svg>
